<svg width="27" height="22" viewBox="0 0 27 22" fill="none" xmlns="http://www.w3.org/2000/svg">
<path d="M7.33353 9.16667V6.41667C7.33353 4.39175 8.97528 2.75 11.0002 2.75C13.0251 2.75 14.6669 4.39175 14.6669 6.41667V9.16667" stroke="#A2A2A7" stroke-width="1.3" stroke-linecap="round" stroke-linejoin="round"/>
<path d="M15.5835 19.2498H6.41686C5.40394 19.2498 4.58353 18.4294 4.58353 17.4165V10.9998C4.58353 9.98692 5.40394 9.1665 6.41686 9.1665H15.5835C16.5964 9.1665 17.4169 9.98692 17.4169 10.9998V17.4165C17.4169 18.4294 16.5964 19.2498 15.5835 19.2498Z" stroke="#A2A2A7" stroke-width="1.3" stroke-linecap="round" stroke-linejoin="round"/>
<path d="M8.25019 14.2461C8.24744 14.2461 8.24561 14.2479 8.24561 14.2507C8.24561 14.2534 8.24744 14.2553 8.25019 14.2553C8.25294 14.2553 8.25477 14.2534 8.25477 14.2507C8.25477 14.2479 8.25294 14.2461 8.25019 14.2461Z" stroke="#A2A2A7" stroke-width="1.5" stroke-linecap="round" stroke-linejoin="round"/>
<path d="M11.0048 14.2461C11.002 14.2461 11.0002 14.2479 11.0002 14.2507C11.0002 14.2534 11.0048 14.2553 11.0048 14.2553C11.0075 14.2553 11.0093 14.2534 11.0093 14.2507C11.0093 14.2479 11.0075 14.2461 11.0048 14.2461Z" stroke="#A2A2A7" stroke-width="1.5" stroke-linecap="round" stroke-linejoin="round"/>
<path d="M13.7502 14.2461C13.7474 14.2461 13.7456 14.2479 13.7456 14.2507C13.7456 14.2534 13.7474 14.2553 13.7502 14.2553C13.7529 14.2553 13.7548 14.2534 13.7548 14.2507C13.7548 14.2479 13.7529 14.2461 13.7502 14.2461Z" stroke="#A2A2A7" stroke-width="1.5" stroke-linecap="round" stroke-linejoin="round"/>
</svg>
