<svg width="22" height="22" viewBox="0 0 22 22" fill="none" xmlns="http://www.w3.org/2000/svg">
<g clip-path="url(#clip0_5421_914)">
<path d="M9.95152 12.0488C8.87902 10.9763 8.07052 9.7755 7.53335 8.55725C7.41968 8.29967 7.4866 7.99808 7.68552 7.79917L8.43627 7.04933C9.05135 6.43425 9.05135 5.56433 8.51418 5.02717L7.43802 3.951C6.7221 3.23508 5.5616 3.23508 4.84568 3.951L4.24802 4.54867C3.56877 5.22792 3.28552 6.20783 3.46885 7.1795C3.92168 9.57475 5.31318 12.1973 7.5581 14.4423C9.80302 16.6872 12.4256 18.0787 14.8209 18.5315C15.7925 18.7148 16.7724 18.4316 17.4517 17.7523L18.0484 17.1556C18.7644 16.4397 18.7644 15.2792 18.0484 14.5633L16.9732 13.488C16.436 12.9508 15.5652 12.9508 15.0289 13.488L14.2012 14.3167C14.0023 14.5156 13.7007 14.5825 13.4431 14.4688C12.2249 13.9307 11.024 13.1213 9.95152 12.0488Z" stroke="#A2A2A7" stroke-width="1.3" stroke-linecap="round" stroke-linejoin="round"/>
</g>
<defs>
<clipPath id="clip0_5421_914">
<rect width="22" height="22" fill="white"/>
</clipPath>
</defs>
</svg>
